<?xml version="1.0" standalone="no"?>
<!DOCTYPE svg PUBLIC "-//W3C//DTD SVG 20010904//EN"
 "http://www.w3.org/TR/2001/REC-SVG-20010904/DTD/svg10.dtd">
<svg version="1.0" xmlns="http://www.w3.org/2000/svg"
 width="512.000000pt" height="512.000000pt" viewBox="0 0 512.000000 512.000000"
 preserveAspectRatio="xMidYMid meet">
<metadata>
Created by potrace 1.14, written by Peter Selinger 2001-2017
</metadata>
<g transform="translate(0.000000,512.000000) scale(0.100000,-0.100000)"
fill="#000000" stroke="none">
<path d="M3597 5003 c-166 -164 -597 -703 -597 -747 0 -26 28 -59 217 -247
138 -139 226 -219 242 -223 26 -5 64 15 126 67 85 71 449 357 454 357 11 0
495 -492 518 -525 57 -84 99 -184 122 -290 10 -46 9 -239 -1 -275 -2 -8 -8
-31 -12 -50 -13 -55 -45 -129 -89 -201 -29 -48 -114 -141 -308 -335 l-268
-268 -101 99 c-114 114 -129 123 -171 108 -28 -11 -32 -9 -99 59 -49 49 -67
75 -60 82 5 5 10 24 10 41 0 27 -123 154 -1173 1203 -645 645 -1179 1177
-1187 1182 -39 25 -61 11 -191 -119 -163 -162 -162 -159 -50 -275 l78 -81 -38
-60 c-103 -158 -196 -401 -225 -581 -3 -20 -8 -46 -11 -58 -2 -11 -6 -97 -8
-191 -4 -172 11 -335 40 -425 3 -10 8 -29 10 -42 14 -75 89 -273 152 -398 l72
-145 -28 -35 c-84 -106 -122 -200 -135 -340 -7 -66 -12 -107 -32 -265 -22
-170 -23 -175 -30 -229 -3 -27 -7 -56 -9 -65 -1 -9 -6 -43 -9 -76 -4 -33 -9
-71 -11 -85 -2 -14 -6 -45 -10 -70 -3 -25 -7 -61 -10 -80 -7 -51 -14 -108 -20
-165 -3 -27 -8 -61 -10 -75 -2 -14 -7 -45 -10 -70 -3 -25 -8 -61 -11 -80 -3
-19 -7 -51 -9 -70 -3 -19 -8 -57 -11 -85 -4 -27 -7 -60 -7 -72 -1 -13 -6 -23
-11 -24 -6 -1 -40 -2 -76 -4 -89 -3 -87 -2 -110 -27 -18 -20 -20 -35 -20 -148
l0 -126 -71 -1 c-74 -1 -115 -15 -124 -43 -3 -10 -6 -75 -6 -146 -1 -237 -1
-233 26 -259 l24 -25 1140 0 1140 0 20 26 c20 25 21 40 21 213 0 241 5 234
-157 233 l-43 0 0 127 c0 114 -2 129 -20 149 -22 24 -25 24 -117 26 -34 1 -66
6 -71 11 -5 6 -17 75 -27 155 -9 79 -19 153 -21 165 -2 11 -6 43 -9 70 -3 28
-7 64 -10 80 -3 17 -7 50 -10 75 -6 53 -11 98 -26 200 -26 191 -26 194 29 166
64 -32 267 -93 372 -111 357 -63 703 -20 1007 126 105 50 207 110 218 129 4 7
44 -24 95 -74 59 -57 94 -83 106 -81 11 2 25 4 32 4 7 1 68 58 137 127 157
158 157 156 48 266 l-76 77 262 263 c321 321 376 393 430 572 32 104 33 112
36 246 5 169 -20 283 -93 425 -52 103 -95 153 -347 405 l-245 246 85 84 c87
87 108 121 95 155 -5 11 -131 143 -282 293 -231 229 -278 272 -302 272 -24 0
-52 -23 -149 -117z m-2557 -3139 c70 -82 213 -162 320 -177 l25 -4 0 -453 0
-453 -64 -2 c-53 -2 -68 -6 -83 -25 -10 -12 -18 -28 -18 -35 0 -17 -200 -19
-200 -2 0 7 -9 23 -19 36 -15 20 -28 24 -82 26 -35 2 -67 4 -70 4 -3 1 0 43 7
94 11 84 18 138 30 237 5 43 24 186 29 220 2 14 6 50 10 80 4 30 8 67 11 81 4
30 10 78 19 154 3 28 8 61 10 75 2 14 6 48 10 75 3 28 8 59 10 70 2 11 4 29 5
40 1 18 2 18 13 4 7 -8 23 -29 37 -45z m874 -41 c37 -19 42 -30 51 -118 3 -27
8 -61 10 -75 3 -14 7 -44 10 -67 3 -24 7 -62 10 -85 3 -24 7 -54 10 -68 2 -14
7 -54 11 -90 3 -36 7 -67 9 -70 1 -3 6 -36 10 -75 4 -38 8 -72 10 -75 2 -3 6
-34 9 -70 4 -36 8 -75 10 -87 3 -12 7 -50 11 -84 4 -35 8 -66 11 -70 8 -13
-23 -15 -281 -14 l-260 0 -3 452 -2 453 27 5 c96 21 237 90 279 136 21 23 24
23 68 2z"/>
</g>
</svg>
